<mxfile host="app.diagrams.net" agent="Mozilla/5.0 (Windows NT 10.0; Win64; x64) AppleWebKit/537.36 (KHTML, like Gecko) Chrome/137.0.0.0 Safari/537.36" version="26.2.8">
  <diagram id="C5RBs43oDa-KdzZeNtuy" name="Page-1">
    <mxGraphModel dx="998" dy="624" grid="0" gridSize="10" guides="1" tooltips="1" connect="1" arrows="1" fold="1" page="1" pageScale="1" pageWidth="827" pageHeight="1169" math="0" shadow="0">
      <root>
        <mxCell id="WIyWlLk6GJQsqaUBKTNV-0" />
        <mxCell id="WIyWlLk6GJQsqaUBKTNV-1" parent="WIyWlLk6GJQsqaUBKTNV-0" />
        <mxCell id="zRiNowk44RKucs-n3Oza-0" value="" style="rounded=0;whiteSpace=wrap;html=1;" vertex="1" parent="WIyWlLk6GJQsqaUBKTNV-1">
          <mxGeometry x="60" y="90" width="720" height="470" as="geometry" />
        </mxCell>
        <mxCell id="zRiNowk44RKucs-n3Oza-2" value="" style="rounded=0;whiteSpace=wrap;html=1;" vertex="1" parent="WIyWlLk6GJQsqaUBKTNV-1">
          <mxGeometry x="60" y="90" width="720" height="40" as="geometry" />
        </mxCell>
        <mxCell id="zRiNowk44RKucs-n3Oza-3" value="BinLens" style="text;html=1;align=center;verticalAlign=middle;whiteSpace=wrap;rounded=0;fontSize=16;" vertex="1" parent="WIyWlLk6GJQsqaUBKTNV-1">
          <mxGeometry x="376" y="95" width="76" height="30" as="geometry" />
        </mxCell>
        <mxCell id="zRiNowk44RKucs-n3Oza-5" value="" style="swimlane;startSize=0;" vertex="1" parent="WIyWlLk6GJQsqaUBKTNV-1">
          <mxGeometry x="60" y="130" width="190" height="430" as="geometry" />
        </mxCell>
        <mxCell id="zRiNowk44RKucs-n3Oza-6" value="Open File" style="rounded=0;whiteSpace=wrap;html=1;" vertex="1" parent="zRiNowk44RKucs-n3Oza-5">
          <mxGeometry x="25" y="40" width="110" height="30" as="geometry" />
        </mxCell>
        <mxCell id="zRiNowk44RKucs-n3Oza-15" value="" style="endArrow=none;html=1;rounded=0;" edge="1" parent="zRiNowk44RKucs-n3Oza-5">
          <mxGeometry width="50" height="50" relative="1" as="geometry">
            <mxPoint x="135" y="172" as="sourcePoint" />
            <mxPoint x="24" y="172" as="targetPoint" />
          </mxGeometry>
        </mxCell>
        <mxCell id="zRiNowk44RKucs-n3Oza-19" value="FUNCTIONS" style="text;html=1;align=center;verticalAlign=middle;whiteSpace=wrap;rounded=0;" vertex="1" parent="zRiNowk44RKucs-n3Oza-5">
          <mxGeometry x="50" y="190" width="60" height="30" as="geometry" />
        </mxCell>
        <mxCell id="zRiNowk44RKucs-n3Oza-43" value="Open a file to explore its functions." style="shape=callout;whiteSpace=wrap;html=1;perimeter=calloutPerimeter;fontSize=9;" vertex="1" parent="zRiNowk44RKucs-n3Oza-5">
          <mxGeometry x="118" y="207" width="90" height="50" as="geometry" />
        </mxCell>
        <mxCell id="zRiNowk44RKucs-n3Oza-20" value="" style="endArrow=none;html=1;rounded=0;" edge="1" parent="zRiNowk44RKucs-n3Oza-5">
          <mxGeometry width="50" height="50" relative="1" as="geometry">
            <mxPoint x="135" y="230" as="sourcePoint" />
            <mxPoint x="24" y="230" as="targetPoint" />
          </mxGeometry>
        </mxCell>
        <mxCell id="zRiNowk44RKucs-n3Oza-42" value="No functions to display." style="text;html=1;align=center;verticalAlign=middle;whiteSpace=wrap;rounded=0;" vertex="1" parent="zRiNowk44RKucs-n3Oza-5">
          <mxGeometry x="25" y="240" width="115" height="30" as="geometry" />
        </mxCell>
        <mxCell id="zRiNowk44RKucs-n3Oza-9" value="Analyze" style="rounded=0;whiteSpace=wrap;html=1;" vertex="1" parent="WIyWlLk6GJQsqaUBKTNV-1">
          <mxGeometry x="85" y="210" width="110" height="30" as="geometry" />
        </mxCell>
        <mxCell id="zRiNowk44RKucs-n3Oza-11" value="Settings" style="rounded=0;whiteSpace=wrap;html=1;" vertex="1" parent="WIyWlLk6GJQsqaUBKTNV-1">
          <mxGeometry x="85" y="250" width="110" height="30" as="geometry" />
        </mxCell>
        <mxCell id="zRiNowk44RKucs-n3Oza-26" value="" style="rounded=0;whiteSpace=wrap;html=1;" vertex="1" parent="WIyWlLk6GJQsqaUBKTNV-1">
          <mxGeometry x="270" y="150" width="190" height="230" as="geometry" />
        </mxCell>
        <mxCell id="zRiNowk44RKucs-n3Oza-23" value="WELCOME TO BINLENS" style="text;html=1;align=center;verticalAlign=middle;whiteSpace=wrap;rounded=0;fontSize=14;" vertex="1" parent="WIyWlLk6GJQsqaUBKTNV-1">
          <mxGeometry x="270" y="180" width="190" height="30" as="geometry" />
        </mxCell>
        <mxCell id="zRiNowk44RKucs-n3Oza-24" value="" style="endArrow=none;html=1;rounded=0;" edge="1" parent="WIyWlLk6GJQsqaUBKTNV-1">
          <mxGeometry width="50" height="50" relative="1" as="geometry">
            <mxPoint x="445" y="224.5" as="sourcePoint" />
            <mxPoint x="285" y="224.5" as="targetPoint" />
          </mxGeometry>
        </mxCell>
        <mxCell id="zRiNowk44RKucs-n3Oza-25" value="Load a binary to get started." style="text;html=1;align=center;verticalAlign=middle;whiteSpace=wrap;rounded=0;" vertex="1" parent="WIyWlLk6GJQsqaUBKTNV-1">
          <mxGeometry x="285" y="240" width="160" height="30" as="geometry" />
        </mxCell>
        <mxCell id="zRiNowk44RKucs-n3Oza-28" value="" style="rounded=0;whiteSpace=wrap;html=1;" vertex="1" parent="WIyWlLk6GJQsqaUBKTNV-1">
          <mxGeometry x="530" y="150" width="190" height="230" as="geometry" />
        </mxCell>
        <mxCell id="zRiNowk44RKucs-n3Oza-29" value="Analysis Results" style="text;html=1;align=center;verticalAlign=middle;whiteSpace=wrap;rounded=0;" vertex="1" parent="WIyWlLk6GJQsqaUBKTNV-1">
          <mxGeometry x="560" y="240" width="140" height="30" as="geometry" />
        </mxCell>
        <mxCell id="zRiNowk44RKucs-n3Oza-30" value="" style="rounded=0;whiteSpace=wrap;html=1;" vertex="1" parent="WIyWlLk6GJQsqaUBKTNV-1">
          <mxGeometry x="270" y="410" width="450" height="120" as="geometry" />
        </mxCell>
        <mxCell id="zRiNowk44RKucs-n3Oza-31" value="" style="rounded=0;whiteSpace=wrap;html=1;" vertex="1" parent="WIyWlLk6GJQsqaUBKTNV-1">
          <mxGeometry x="270" y="410" width="450" height="30" as="geometry" />
        </mxCell>
        <mxCell id="zRiNowk44RKucs-n3Oza-32" value="" style="rounded=0;whiteSpace=wrap;html=1;" vertex="1" parent="WIyWlLk6GJQsqaUBKTNV-1">
          <mxGeometry x="270" y="410" width="100" height="30" as="geometry" />
        </mxCell>
        <mxCell id="zRiNowk44RKucs-n3Oza-33" value="Status" style="text;html=1;align=center;verticalAlign=middle;whiteSpace=wrap;rounded=0;" vertex="1" parent="WIyWlLk6GJQsqaUBKTNV-1">
          <mxGeometry x="290" y="410" width="60" height="30" as="geometry" />
        </mxCell>
        <mxCell id="zRiNowk44RKucs-n3Oza-35" value="Logs" style="text;html=1;align=center;verticalAlign=middle;whiteSpace=wrap;rounded=0;" vertex="1" parent="WIyWlLk6GJQsqaUBKTNV-1">
          <mxGeometry x="376" y="410" width="60" height="30" as="geometry" />
        </mxCell>
        <mxCell id="zRiNowk44RKucs-n3Oza-38" value="" style="endArrow=none;html=1;rounded=0;entryX=0.965;entryY=0.862;entryDx=0;entryDy=0;entryPerimeter=0;" edge="1" parent="WIyWlLk6GJQsqaUBKTNV-1">
          <mxGeometry width="50" height="50" relative="1" as="geometry">
            <mxPoint x="750" y="100" as="sourcePoint" />
            <mxPoint x="767" y="119.13" as="targetPoint" />
          </mxGeometry>
        </mxCell>
        <mxCell id="zRiNowk44RKucs-n3Oza-40" value="" style="endArrow=none;html=1;rounded=0;" edge="1" parent="WIyWlLk6GJQsqaUBKTNV-1">
          <mxGeometry width="50" height="50" relative="1" as="geometry">
            <mxPoint x="766" y="100" as="sourcePoint" />
            <mxPoint x="749" y="120" as="targetPoint" />
          </mxGeometry>
        </mxCell>
        <mxCell id="zRiNowk44RKucs-n3Oza-41" value="" style="endArrow=none;html=1;rounded=0;" edge="1" parent="WIyWlLk6GJQsqaUBKTNV-1">
          <mxGeometry width="50" height="50" relative="1" as="geometry">
            <mxPoint x="720" y="110" as="sourcePoint" />
            <mxPoint x="720" y="110" as="targetPoint" />
            <Array as="points">
              <mxPoint x="740" y="110" />
            </Array>
          </mxGeometry>
        </mxCell>
        <mxCell id="zRiNowk44RKucs-n3Oza-45" value="" style="rounded=0;whiteSpace=wrap;html=1;" vertex="1" parent="WIyWlLk6GJQsqaUBKTNV-1">
          <mxGeometry x="179" y="600" width="463" height="331" as="geometry" />
        </mxCell>
        <mxCell id="zRiNowk44RKucs-n3Oza-46" value="&amp;nbsp; &amp;nbsp; &amp;nbsp;Configure Analysis on &amp;lt;cwe_nightmare_x86&amp;gt;" style="rounded=1;whiteSpace=wrap;html=1;align=left;" vertex="1" parent="WIyWlLk6GJQsqaUBKTNV-1">
          <mxGeometry x="183.5" y="610" width="454" height="40" as="geometry" />
        </mxCell>
        <mxCell id="zRiNowk44RKucs-n3Oza-47" value="Start" style="strokeWidth=1;shadow=0;dashed=0;align=center;html=1;shape=mxgraph.mockup.buttons.button;strokeColor=#666666;fontColor=#ffffff;mainText=;buttonStyle=round;fontSize=17;fontStyle=1;fillColor=#008cff;whiteSpace=wrap;" vertex="1" parent="WIyWlLk6GJQsqaUBKTNV-1">
          <mxGeometry x="543" y="900" width="94" height="26" as="geometry" />
        </mxCell>
        <mxCell id="zRiNowk44RKucs-n3Oza-108" value="" style="swimlane;shape=mxgraph.bootstrap.anchor;strokeColor=#666666;fillColor=#ffffff;fontColor=#161616;fontStyle=0;childLayout=stackLayout;horizontal=0;startSize=0;horizontalStack=1;resizeParent=1;resizeParentMax=0;resizeLast=0;collapsible=0;marginBottom=0;whiteSpace=wrap;html=1;fontSize=14;" vertex="1" parent="WIyWlLk6GJQsqaUBKTNV-1">
          <mxGeometry x="179" y="673" width="250" height="22" as="geometry" />
        </mxCell>
        <mxCell id="zRiNowk44RKucs-n3Oza-109" value="General" style="text;strokeColor=#008CFF;align=center;verticalAlign=middle;spacingLeft=10;spacingRight=10;overflow=hidden;points=[[0,0.5],[1,0.5]];portConstraint=eastwest;rotatable=0;whiteSpace=wrap;html=1;shape=mxgraph.mockup.leftButton;rSize=10;fillColor=#008CFF;fontColor=#ffffff;fontSize=15;fontStyle=1;" vertex="1" parent="zRiNowk44RKucs-n3Oza-108">
          <mxGeometry width="125" height="22" as="geometry" />
        </mxCell>
        <mxCell id="zRiNowk44RKucs-n3Oza-110" value="Shared Objects" style="text;strokeColor=inherit;align=center;verticalAlign=middle;spacingLeft=10;spacingRight=10;overflow=hidden;points=[[0,0.5],[1,0.5]];portConstraint=eastwest;rotatable=0;whiteSpace=wrap;html=1;rSize=5;fillColor=inherit;fontColor=inherit;fontSize=14;fontStyle=1;" vertex="1" parent="zRiNowk44RKucs-n3Oza-108">
          <mxGeometry x="125" width="125" height="22" as="geometry" />
        </mxCell>
        <mxCell id="zRiNowk44RKucs-n3Oza-111" value="&lt;font&gt;Entrypoints&lt;/font&gt;" style="text;strokeColor=inherit;align=center;verticalAlign=middle;spacingLeft=10;spacingRight=10;overflow=hidden;points=[[0,0.5],[1,0.5]];portConstraint=eastwest;rotatable=0;whiteSpace=wrap;html=1;rSize=5;fillColor=inherit;fontColor=default;fontSize=14;fontStyle=1;" vertex="1" parent="WIyWlLk6GJQsqaUBKTNV-1">
          <mxGeometry x="429" y="673" width="125" height="22" as="geometry" />
        </mxCell>
        <mxCell id="zRiNowk44RKucs-n3Oza-115" value="Back" style="strokeWidth=1;shadow=0;dashed=0;align=center;html=1;shape=mxgraph.mockup.buttons.button;mainText=;buttonStyle=round;fontSize=17;fontStyle=1;whiteSpace=wrap;" vertex="1" parent="WIyWlLk6GJQsqaUBKTNV-1">
          <mxGeometry x="442" y="900" width="94" height="26" as="geometry" />
        </mxCell>
        <mxCell id="zRiNowk44RKucs-n3Oza-116" value="" style="rounded=0;whiteSpace=wrap;html=1;" vertex="1" parent="WIyWlLk6GJQsqaUBKTNV-1">
          <mxGeometry x="179" y="695" width="463" height="199" as="geometry" />
        </mxCell>
        <mxCell id="zRiNowk44RKucs-n3Oza-117" value="Instruction Set Architecture:" style="text;html=1;align=center;verticalAlign=middle;whiteSpace=wrap;rounded=0;" vertex="1" parent="WIyWlLk6GJQsqaUBKTNV-1">
          <mxGeometry x="194" y="733" width="187" height="30" as="geometry" />
        </mxCell>
        <mxCell id="zRiNowk44RKucs-n3Oza-118" value="Analysis Timeout (Minutes):" style="text;html=1;align=center;verticalAlign=middle;whiteSpace=wrap;rounded=0;" vertex="1" parent="WIyWlLk6GJQsqaUBKTNV-1">
          <mxGeometry x="194" y="779.5" width="187" height="30" as="geometry" />
        </mxCell>
        <mxCell id="zRiNowk44RKucs-n3Oza-123" value="ARM" style="strokeWidth=1;shadow=0;dashed=0;align=center;html=1;shape=mxgraph.mockup.forms.comboBox;strokeColor=#999999;fillColor=#ddeeff;align=left;fillColor2=#aaddff;mainText=;fontColor=#666666;fontSize=17;spacingLeft=3;" vertex="1" parent="WIyWlLk6GJQsqaUBKTNV-1">
          <mxGeometry x="485" y="733" width="115" height="23" as="geometry" />
        </mxCell>
        <mxCell id="zRiNowk44RKucs-n3Oza-124" value="30" style="strokeWidth=1;shadow=0;dashed=0;align=center;html=1;shape=mxgraph.mockup.forms.spinner;strokeColor=#999999;spinLayout=right;spinStyle=normal;adjStyle=triangle;fillColor=#aaddff;fontSize=17;fontColor=#666666;mainText=;html=1;overflow=fill;" vertex="1" parent="WIyWlLk6GJQsqaUBKTNV-1">
          <mxGeometry x="487.75" y="779.5" width="109.5" height="25.5" as="geometry" />
        </mxCell>
        <mxCell id="zRiNowk44RKucs-n3Oza-125" value="Different ISA than detected" style="text;html=1;align=center;verticalAlign=middle;whiteSpace=wrap;rounded=0;fontSize=11;fontColor=#4D4D4D;" vertex="1" parent="WIyWlLk6GJQsqaUBKTNV-1">
          <mxGeometry x="403" y="749.5" width="283" height="30" as="geometry" />
        </mxCell>
      </root>
    </mxGraphModel>
  </diagram>
</mxfile>
